_________________________  Visit us at _________________________
  
http://p2pdl.com  ____________________________  http://p2pdl.com

 
http://www.shotpix.com/images/83573952020498990547.jpg

Chasing Mavericks 2012 BRRip 720p x264 AAC - PRiSTiNE [P2PDL]
				
Genre: Drama | Sport
When young Jay Moriarty discovers that the mythic Mavericks surf break, 
one of the biggest waves on Earth, exists just miles from his Santa Cruz home, 
he enlists the help of local legend Frosty Hesson to train him to survive it.
Director:  Michael Apted, Curtis Hanson
Stars:  Jonny Weston, Gerard Butler, Elisabeth Shue

Info:  
http://www.imdb.com/title/tt1629757/
 
http://www.rottentomatoes.com/m/chasing_mavericks/

General
Complete name                  : Chasing Mavericks 2012 BRRip 720p x264 AAC - PRiSTiNE [P2PDL].mp4
Format                         : MPEG-4
Format profile                 : Base Media / Version 2
Codec ID                       : mp42
File size                      : 704 MiB
Duration                       : 1h 56mn
Overall bit rate mode          : Variable
Overall bit rate               : 845 Kbps

Source                         : 720p Bluray Sparks (Thanks)

Video
Format                         : AVC
Bit rate                       : 760 Kbps
Width                          : 1 280 pixels
Height                         : 696 pixels
Display aspect ratio           : 1.85:1
Frame rate mode                : Variable
Frame rate                     : 23.976 fps
Scan type                      : Progressive
Bits/(Pixel*Frame)             : 0.036
Stream size                    : 633 MiB (90%)
Writing library                : x264 core 129

Audio
Format                         : AAC
Bit rate                       : 79.9 Kbps
Channel(s)                     : 2 channels
Channel positions              : Front: L R
Sampling rate                  : 48.0 KHz
Compression mode               : Lossy
Delay relative to video        : 83ms
Stream size                    : 66.6 MiB (9%)
Language                       : English

Subtitle                       : Yes ( English)


Screens: 
http://www.shotpix.com/images/39242633263378401483.jpg 
http://www.shotpix.com/images/94521683523202539576.jpg 
http://www.shotpix.com/images/61201157789751734934.jpg 
http://www.shotpix.com/images/08544924159571228581.jpg

Thumbs: 
http://www.shotpix.com/images/72245782628908527846.jpg

----------------------------------------------------------------------------------------------------


Recommend to you to use latest version of VLC player. Install K-Lite Codec Pack or shark007 codecs
in case of any kind of problem in playback (For non-VLC Media Player users). Alternatively, install
Core AVC codecs, the fastest decoder that there is coupled with Community Center Codec Pack and play
on Windows Media Player Classic. Check sample to be sure.
Enjoy!

Greets to: VYTO, a2zRG, MusiK_KinG, Neon, Kuroyukihime, TorDigger, Ash968, StyLishSaLH and staff members at
ExtraTorrent, TPB, H33T, KAT, 1337x, PublicHD, Ahashare, BTScene, SilverTorrent, LimeTorrents, TorrentMafia,
P2PDL, and all others.

Encoder Notes: Looking For Early Access To Anything You Can Provide DVDScr, R5, DVDR, BluRay, Direct
Audio, Early Music Releases, Seedboxes, Dedicated Servers anything u can provide, Advance / Promo CDs/
DVDs. If You Got anything to offer contact me at "prg@hush.com".